<svg xmlns="http://www.w3.org/2000/svg" viewBox="0 0 100 100" width="100" height="100">
  <defs>
    <linearGradient id="chatGradient" x1="0%" y1="0%" x2="100%" y2="100%">
      <stop offset="0%" style="stop-color:#06b6d4;stop-opacity:1" />
      <stop offset="50%" style="stop-color:#3b82f6;stop-opacity:1" />
      <stop offset="100%" style="stop-color:#8b5cf6;stop-opacity:1" />
    </linearGradient>
    <filter id="glow">
      <feGaussianBlur stdDeviation="2" result="coloredBlur"/>
      <feMerge> 
        <feMergeNode in="coloredBlur"/>
        <feMergeNode in="SourceGraphic"/>
      </feMerge>
    </filter>
  </defs>
  
  <!-- Background Circle -->
  <circle cx="50" cy="50" r="45" fill="url(#chatGradient)" filter="url(#glow)"/>
  
  <!-- Main Chat Bubble -->
  <path d="M25 35 Q25 25 35 25 L65 25 Q75 25 75 35 L75 55 Q75 65 65 65 L45 65 L35 75 L35 65 Q25 65 25 55 Z" 
        fill="white" opacity="0.95"/>
  
  <!-- Chat Dots -->
  <circle cx="40" cy="45" r="3" fill="url(#chatGradient)"/>
  <circle cx="50" cy="45" r="3" fill="url(#chatGradient)"/>
  <circle cx="60" cy="45" r="3" fill="url(#chatGradient)"/>
  
  <!-- Heart Symbol (for Instagram-like feel) -->
  <path d="M62 20 Q65 17 68 20 Q71 17 74 20 Q74 25 68 30 Q65 27 62 30 Q62 25 62 20" 
        fill="#ff6b6b" opacity="0.8"/>
</svg>